<svg xmlns="http://www.w3.org/2000/svg" viewBox="0 0 64 64"><linearGradient id="a" x1="3.696" x2="46.609" y1="4.015" y2="51.493" gradientUnits="userSpaceOnUse"><stop offset=".209"/><stop offset=".405"/><stop offset=".405"/><stop offset=".52"/><stop offset=".639"/><stop offset=".765"/><stop offset=".905"/></linearGradient><path fill="url(#a)" d="M50 12h-4V2.04A2.035 2.035 0 0 0 43.211.148L15.168 12H14c-1.103 0-2 .897-2 2v48c0 1.103.897 2 2 2h36c1.103 0 2-.897 2-2V14c0-1.103-.897-2-2-2zm-6-9.96V12H20.325L44 2.04zM14 62V14h36l.001 48H14z"/><linearGradient id="b" x1="2.368" x2="45.281" y1="5.215" y2="52.694" gradientUnits="userSpaceOnUse"><stop offset=".209"/><stop offset=".405"/><stop offset=".405"/><stop offset=".52"/><stop offset=".639"/><stop offset=".765"/><stop offset=".905"/></linearGradient><path fill="url(#b)" d="M47 16H17a1 1 0 0 0-1 1v42a1 1 0 0 0 1 1h30a1 1 0 0 0 1-1V17a1 1 0 0 0-1-1zm-1 42H18V18h28v40z"/><linearGradient id="c" x1="3.802" x2="46.715" y1="3.919" y2="51.397" gradientUnits="userSpaceOnUse"><stop offset=".209"/><stop offset=".405" stop-color="#f18a3c"/><stop offset=".405" stop-color="#f18a3c"/><stop offset=".52" stop-color="#ef773c"/><stop offset=".639" stop-color="#ed6c3c"/><stop offset=".765" stop-color="#ed683c"/><stop offset=".905" stop-color="#e93e3a"/></linearGradient><path fill="url(#c)" d="M21.5 26c1.378 0 2.5-1.122 2.5-2.5S22.878 21 21.5 21 19 22.122 19 23.5s1.122 2.5 2.5 2.5zm0-3a.5.5 0 1 1 0 1 .5.5 0 0 1 0-1z"/><linearGradient id="d" x1="-.141" x2="42.772" y1="7.483" y2="54.961" gradientUnits="userSpaceOnUse"><stop offset=".209" stop-color="#fbb040"/><stop offset=".405" stop-color="#f18a3c"/><stop offset=".405" stop-color="#f18a3c"/><stop offset=".52" stop-color="#ef773c"/><stop offset=".639" stop-color="#ed6c3c"/><stop offset=".765" stop-color="#ed683c"/><stop offset=".905" stop-color="#e93e3a"/></linearGradient><path fill="url(#d)" d="M41 50c-1.654 0-3 1.346-3 3s1.346 3 3 3 3-1.346 3-3-1.346-3-3-3zm0 4c-.551 0-1-.449-1-1s.449-1 1-1 1 .449 1 1-.449 1-1 1z"/><linearGradient id="e" x1="13.407" x2="56.32" y1="-4.763" y2="42.716" gradientUnits="userSpaceOnUse"><stop offset=".209" stop-color="#fbb040"/><stop offset=".405" stop-color="#f18a3c"/><stop offset=".405" stop-color="#f18a3c"/><stop offset=".52" stop-color="#ef773c"/><stop offset=".639" stop-color="#ed6c3c"/><stop offset=".765" stop-color="#ed683c"/><stop offset=".905" stop-color="#e93e3a"/></linearGradient><path fill="url(#e)" d="M38 24h1a1 1 0 0 0 0-2h-1a1 1 0 0 0 0 2z"/><linearGradient id="f" x1="16.027" x2="58.94" y1="-7.13" y2="40.348" gradientUnits="userSpaceOnUse"><stop offset=".209" stop-color="#fbb040"/><stop offset=".405" stop-color="#f18a3c"/><stop offset=".405" stop-color="#f18a3c"/><stop offset=".52" stop-color="#ef773c"/><stop offset=".639" stop-color="#ed6c3c"/><stop offset=".765" stop-color="#ed683c"/><stop offset=".905" stop-color="#e93e3a"/></linearGradient><path fill="url(#f)" d="M41 22a1 1 0 0 0 1-1v-1a1 1 0 0 0-2 0v1a1 1 0 0 0 1 1z"/><linearGradient id="g" x1="13.539" x2="56.452" y1="-4.882" y2="42.596" gradientUnits="userSpaceOnUse"><stop offset=".209" stop-color="#fbb040"/><stop offset=".405" stop-color="#f18a3c"/><stop offset=".405" stop-color="#f18a3c"/><stop offset=".52" stop-color="#ef773c"/><stop offset=".639" stop-color="#ed6c3c"/><stop offset=".765" stop-color="#ed683c"/><stop offset=".905" stop-color="#e93e3a"/></linearGradient><path fill="url(#g)" d="M41 24a1 1 0 0 0-1 1v1a1 1 0 0 0 2 0v-1a1 1 0 0 0-1-1z"/><linearGradient id="h" x1="16.159" x2="59.072" y1="-7.25" y2="40.228" gradientUnits="userSpaceOnUse"><stop offset=".209" stop-color="#fbb040"/><stop offset=".405" stop-color="#f18a3c"/><stop offset=".405" stop-color="#f18a3c"/><stop offset=".52" stop-color="#ef773c"/><stop offset=".639" stop-color="#ed6c3c"/><stop offset=".765" stop-color="#ed683c"/><stop offset=".905" stop-color="#e93e3a"/></linearGradient><path fill="url(#h)" d="M43 24h1a1 1 0 0 0 0-2h-1a1 1 0 0 0 0 2z"/><linearGradient id="i" x1="1.669" x2="44.582" y1="5.847" y2="53.325" gradientUnits="userSpaceOnUse"><stop offset=".209" stop-color="#fbb040"/><stop offset=".405" stop-color="#f18a3c"/><stop offset=".405" stop-color="#f18a3c"/><stop offset=".52" stop-color="#ef773c"/><stop offset=".639" stop-color="#ed6c3c"/><stop offset=".765" stop-color="#ed683c"/><stop offset=".905" stop-color="#e93e3a"/></linearGradient><path fill="url(#i)" d="M24 33c-1.103 0-2 .897-2 2v11c0 1.103.897 2 2 2h16c1.103 0 2-.897 2-2V35c0-1.103-.897-2-2-2h-2v-5a1 1 0 0 0-2 0v5h-3v-5a1 1 0 0 0-2 0v5h-3v-5a1 1 0 0 0-2 0v5h-2zm0 7h16.001v1H24v-1zm0 6v-3h16.001v3H24zm16-8H24v-3h16v3z"/><linearGradient id="j" x1="-10.545" x2="32.368" y1="16.886" y2="64.365" gradientUnits="userSpaceOnUse"><stop offset=".209" stop-color="#fbb040"/><stop offset=".405" stop-color="#f18a3c"/><stop offset=".405" stop-color="#f18a3c"/><stop offset=".52" stop-color="#ef773c"/><stop offset=".639" stop-color="#ed6c3c"/><stop offset=".765" stop-color="#ed683c"/><stop offset=".905" stop-color="#e93e3a"/></linearGradient><path fill="url(#j)" d="M25 53h-1v-1a1 1 0 0 0-2 0v1h-1a1 1 0 0 0 0 2h1v1a1 1 0 0 0 2 0v-1h1a1 1 0 0 0 0-2z"/></svg>