<svg xmlns="http://www.w3.org/2000/svg" xmlns:xlink="http://www.w3.org/1999/xlink" width="1920" height="1079" viewBox="0 0 1920 1079">
  <defs>
    <style>
      .cls-1 {
        clip-path: url(#clip-Web_1920_2);
      }

      .cls-2, .cls-6, .cls-7 {
        fill: #707070;
      }

      .cls-10, .cls-3, .cls-4, .cls-5, .cls-8, .cls-9 {
        fill: #fff;
      }

      .cls-3 {
        font-size: 50px;
      }

      .cls-10, .cls-3, .cls-4, .cls-7, .cls-8, .cls-9 {
        font-family: MaiandraGD-Regular, Maiandra GD;
      }

      .cls-4, .cls-7 {
        font-size: 20px;
      }

      .cls-6 {
        stroke: #fff;
      }

      .cls-8 {
        font-size: 430px;
      }

      .cls-9 {
        font-size: 100px;
      }

      .cls-10 {
        font-size: 40px;
      }

      .cls-11 {
        stroke: none;
      }

      .cls-12 {
        fill: none;
      }

      .cls-13 {
        filter: url(#Rectangle_4);
      }

      .cls-14 {
        filter: url(#Rectangle_1);
      }
    </style>
    <filter id="Rectangle_1" x="-9" y="-6" width="1938" height="98" filterUnits="userSpaceOnUse">
      <feOffset dy="3" input="SourceAlpha"/>
      <feGaussianBlur stdDeviation="3" result="blur"/>
      <feFlood flood-color="#fff" flood-opacity="0.161"/>
      <feComposite operator="in" in2="blur"/>
      <feComposite in="SourceGraphic"/>
    </filter>
    <filter id="Rectangle_4" x="238" y="186" width="709" height="707" filterUnits="userSpaceOnUse">
      <feOffset input="SourceAlpha"/>
      <feGaussianBlur stdDeviation="10" result="blur-2"/>
      <feFlood flood-color="#fff" flood-opacity="0.161"/>
      <feComposite operator="in" in2="blur-2"/>
      <feComposite in="SourceGraphic"/>
    </filter>
    <clipPath id="clip-Web_1920_2">
      <rect width="1920" height="1079"/>
    </clipPath>
  </defs>
  <g id="Web_1920_2" data-name="Web 1920 – 2" class="cls-1">
    <rect class="cls-2" width="1920" height="1079"/>
    <g class="cls-14" transform="matrix(1, 0, 0, 1, 0, 0)">
      <path id="Rectangle_1-2" data-name="Rectangle 1" class="cls-2" d="M0,0H1920a0,0,0,0,1,0,0V40a40,40,0,0,1-40,40H40A40,40,0,0,1,0,40V0A0,0,0,0,1,0,0Z"/>
    </g>
    <text id="Leti_Tarekegn" data-name="Leti Tarekegn" class="cls-3" transform="translate(300 58)"><tspan x="0" y="0">Leti Tarekegn</tspan></text>
    <text id="Timeline" class="cls-4" transform="translate(749 47)"><tspan x="0" y="0">Timeline</tspan></text>
    <text id="Who_made_this" data-name="Who made this" class="cls-4" transform="translate(895 47)"><tspan x="0" y="0">Who made this</tspan></text>
    <text id="Nothing" class="cls-4" transform="translate(1099 47)"><tspan x="0" y="0">Nothing</tspan></text>
    <path id="Rectangle_2" data-name="Rectangle 2" class="cls-5" d="M22,0H90a0,0,0,0,1,0,0V44a0,0,0,0,1,0,0H22A22,22,0,0,1,0,22v0A22,22,0,0,1,22,0Z" transform="translate(1440 18)"/>
    <g id="Rectangle_3" data-name="Rectangle 3" class="cls-6" transform="translate(1530 18)">
      <path class="cls-11" d="M0,0H68A22,22,0,0,1,90,22v0A22,22,0,0,1,68,44H0a0,0,0,0,1,0,0V0A0,0,0,0,1,0,0Z"/>
      <path class="cls-12" d="M.5.5H68A21.5,21.5,0,0,1,89.5,22v0A21.5,21.5,0,0,1,68,43.5H.5a0,0,0,0,1,0,0V.5A0,0,0,0,1,.5.5Z"/>
    </g>
    <text id="Light" class="cls-7" transform="translate(1464 28)"><tspan x="0" y="19">Light</tspan></text>
    <text id="Dark" class="cls-4" transform="translate(1554 28)"><tspan x="0" y="19">Dark</tspan></text>
    <g class="cls-13" transform="matrix(1, 0, 0, 1, 0, 0)">
      <g id="Rectangle_4-2" data-name="Rectangle 4" class="cls-6" transform="translate(268 216)">
        <rect class="cls-11" width="649" height="647" rx="46"/>
        <rect class="cls-12" x="0.5" y="0.5" width="648" height="646" rx="45.5"/>
      </g>
    </g>
    <g id="Rectangle_5" data-name="Rectangle 5" class="cls-6" transform="translate(1004 216)">
      <rect class="cls-11" width="649" height="647" rx="46"/>
      <rect class="cls-12" x="0.5" y="0.5" width="648" height="646" rx="45.5"/>
    </g>
    <text id="_21" data-name="21" class="cls-8" transform="translate(387 630)"><tspan x="0" y="0">21</tspan></text>
    <text id="_10110" data-name="10110" class="cls-9" transform="translate(477 767)"><tspan x="0" y="0">10110</tspan></text>
    <text id="Sorry_for_stating_your_age_You_re_like_a_12_year_old_to_me._Well_everything_can_be_translated_into_a_bad_thing_these_days." data-name="Sorry for stating your age, You&apos;re like a 12 year old to me. Well everything can be translated into a bad thing these days." class="cls-10" transform="translate(1072 294)"><tspan x="0" y="39">Sorry for stating your age, </tspan><tspan x="0" y="87">You&apos;re like a 12 year old to </tspan><tspan x="0" y="135">me. Well everything can be </tspan><tspan x="0" y="183">translated into a bad thing </tspan><tspan x="0" y="231">these days.</tspan></text>
  </g>
</svg>
